<?xml version="1.0"?>
<svg xmlns="http://www.w3.org/2000/svg" xmlns:xlink="http://www.w3.org/1999/xlink" xmlns:svgjs="http://svgjs.com/svgjs" version="1.1" width="512" height="512" x="0" y="0" viewBox="0 0 512 512" style="enable-background:new 0 0 512 512" xml:space="preserve" class=""><g>
<g xmlns="http://www.w3.org/2000/svg">
	<g>
		<path d="M460.765,183.047c10.435-32.89,7.697-68.554-7.944-101.325c-16.604-34.79-45.529-61.784-81.447-76.012L356.958,0    l-30.135,83.157c-22.933-7.066-46.689-10.64-70.822-10.64c-24.133,0-47.89,3.574-70.822,10.64L155.042,0l-14.417,5.71    c-35.918,14.227-64.843,41.222-81.447,76.012c-15.64,32.77-18.38,68.435-7.944,101.325    C19.971,228.624,3.492,282.361,3.492,338.993l2.362,55.744l36.676,12.226l32.463,54.105l121.575,30.393    C212.957,504.322,233.599,512,256,512c23.424,0,44.921-8.398,61.648-22.336l119.184-32.356l32.382-50.26l36.933-12.312    l2.348-55.103l0.014-0.641C508.508,282.36,492.03,228.623,460.765,183.047z M476.945,372.729l-27.307,9.102l-31.857,49.445    L345.76,450.83c4.26-10.804,6.627-22.554,6.68-34.841c0.058-1.098,0.174-3.645,0.13-5.637c-0.192-8.655,3.065-16.859,9.17-23.101    c6.228-6.368,14.565-9.875,23.476-9.875h57.147v-75.563c0-25.408-17.431-46.821-40.963-52.909    c-6.16-29.394-32.282-51.533-63.48-51.533c-35.761,0-64.855,29.095-64.855,64.856h30.112c0-19.157,15.585-34.744,34.743-34.744    s34.744,15.586,34.744,34.744v15.056h15.056c13.526,0,24.531,11.004,24.531,24.531v45.451h-27.035    c-17.08,0-33.061,6.723-45.003,18.932c-11.818,12.083-18.121,28.001-17.747,44.826c0.019,0.852-0.055,2.695-0.111,3.668    l-0.025,0.87c0,36.573-29.755,66.328-66.328,66.328c-36.305,0-65.893-29.324-66.324-65.529    c1.821-17.433-3.765-34.882-15.411-48.021c-11.87-13.392-28.942-21.074-46.839-21.074H99.75v-45.451    c0-13.526,11.004-24.531,24.531-24.531h15.056v-15.056c0-19.157,15.586-34.744,34.744-34.744    c19.157,0,34.744,15.586,34.744,34.744h30.112c0-35.761-29.095-64.856-64.856-64.856c-31.197,0-57.32,22.14-63.48,51.533    c-23.532,6.089-40.963,27.502-40.963,52.909v75.563h57.789c9.422,0,18.053,3.883,24.304,10.935s9.069,16.087,7.938,25.442    l-0.108,0.9v0.907c0,13.297,2.705,25.972,7.592,37.508l-72.755-18.189l-31.778-52.961l-27.564-9.188l-1.451-34.053    c0.065-52.813,16.165-102.742,46.571-144.403l4.845-6.639l-2.963-7.666c-10.504-27.176-8.978-57.461,4.297-85.277    c11.073-23.202,28.986-42.085,51.276-54.355l29.479,81.343l14.282-5.406c23.92-9.055,49.022-13.645,74.608-13.645    c25.586,0,50.688,4.591,74.607,13.645l14.282,5.406l29.479-81.343c22.291,12.271,40.203,31.153,51.276,54.355    c13.276,27.816,14.802,58.102,4.297,85.277l-2.963,7.666l4.845,6.639c30.405,41.659,46.506,91.589,46.571,144.402L476.945,372.729    z" fill="#ffffff" data-original="#000000" style="" class=""/>
	</g>
</g>
<g xmlns="http://www.w3.org/2000/svg">
	<g>
		<polygon points="279.769,403.325 256,419.171 232.232,403.325 215.529,428.38 256,455.362 296.472,428.38   " fill="#ffffff" data-original="#000000" style="" class=""/>
	</g>
</g>
<g xmlns="http://www.w3.org/2000/svg">
	<g>
		<rect x="167.003" y="272.195" width="30.112" height="30.112" fill="#ffffff" data-original="#000000" style="" class=""/>
	</g>
</g>
<g xmlns="http://www.w3.org/2000/svg">
	<g>
		<rect x="314.885" y="272.195" width="30.112" height="30.112" fill="#ffffff" data-original="#000000" style="" class=""/>
	</g>
</g>
<g xmlns="http://www.w3.org/2000/svg">
	<g>
		<rect x="240.939" y="148.183" width="30.112" height="53.53" fill="#ffffff" data-original="#000000" style="" class=""/>
	</g>
</g>
<g xmlns="http://www.w3.org/2000/svg">
</g>
<g xmlns="http://www.w3.org/2000/svg">
</g>
<g xmlns="http://www.w3.org/2000/svg">
</g>
<g xmlns="http://www.w3.org/2000/svg">
</g>
<g xmlns="http://www.w3.org/2000/svg">
</g>
<g xmlns="http://www.w3.org/2000/svg">
</g>
<g xmlns="http://www.w3.org/2000/svg">
</g>
<g xmlns="http://www.w3.org/2000/svg">
</g>
<g xmlns="http://www.w3.org/2000/svg">
</g>
<g xmlns="http://www.w3.org/2000/svg">
</g>
<g xmlns="http://www.w3.org/2000/svg">
</g>
<g xmlns="http://www.w3.org/2000/svg">
</g>
<g xmlns="http://www.w3.org/2000/svg">
</g>
<g xmlns="http://www.w3.org/2000/svg">
</g>
<g xmlns="http://www.w3.org/2000/svg">
</g>
</g></svg>
